# xmcd
#
# Track frame offsets: 
#        150
#        14679
#        26098
#        42639
#        52925
#        69803
#        85546
#        98884
#        117977
#        127088
#        136797
#
# Disc length: 2059 seconds
#
# Revision: 2
# Processed by: cddbd v1.5.2PL0 Copyright (c) Steve Scherf et al.
# Submitted via: ExactAudioCopy v0.95a4
#
DISCID=8f08090b
DTITLE=Lindi Ortega  - Tin Star
DYEAR=2013
DGENRE=Country
TTITLE0=Hard As This
TTITLE1=Gypsy Child
TTITLE2=Tin Star
TTITLE3=Voodoo Mama
TTITLE4=Lived And Died Alone
TTITLE5=I Want You
TTITLE6=This Is Not Surreal
TTITLE7=Something For You
TTITLE8=All These Cats
TTITLE9=Waitin' On My Luck To Change
TTITLE10=Songs About
EXTD=Yaer: 2013
EXTT0=
EXTT1=
EXTT2=
EXTT3=
EXTT4=
EXTT5=
EXTT6=
EXTT7=
EXTT8=
EXTT9=
EXTT10=
PLAYORDER=
